# xmcd CD database file
#
# Track frame offsets:
#	150
#	21891
#	46285
#	66923
#	90776
#	110683
#	135392
#	160690
#	184442
#
# Disc length: 2724 seconds
#
# Revision: 1
# Processed by: cddbd v1.5.1PL0 Copyright (c) Steve Scherf et al.
# Submitted via: CDex 1.51
#
DISCID=6f0aa209
DTITLE=Cache - Blended
DYEAR=2003
DGENRE=Salsa
TTITLE0=With you
TTITLE1=Chacache
TTITLE2=Gente loca
TTITLE3=Mi amor se fue
TTITLE4=Lola
TTITLE5=Sacala a bailar
TTITLE6=Sueños
TTITLE7=Ponte en la moda
TTITLE8=Ya me voy
EXTD=YEAR: 2003
EXTT0=
EXTT1=
EXTT2=
EXTT3=
EXTT4=
EXTT5=
EXTT6=
EXTT7=
EXTT8=
PLAYORDER=
